<svg width="186" height="20" viewBox="0 0 186 20" fill="none" xmlns="http://www.w3.org/2000/svg">
<path d="M176 1.66669L178.575 6.88335L184.333 7.72502L180.167 11.7834L181.15 17.5167L176 14.8084L170.85 17.5167L171.833 11.7834L167.667 7.72502L173.425 6.88335L176 1.66669Z" stroke="#C99E71" stroke-width="2" stroke-linecap="round" stroke-linejoin="round"/>
<path d="M153.333 1.66699L155.908 6.88366L161.667 7.72533L157.5 11.7837L158.483 17.517L153.333 14.8087L148.183 17.517L149.167 11.7837L145 7.72533L150.758 6.88366L153.333 1.66699Z" fill="#C99E71"/>
<path d="M128 1.66699L130.575 6.88366L136.333 7.72533L132.167 11.7837L133.15 17.517L128 14.8087L122.85 17.517L123.833 11.7837L119.667 7.72533L125.425 6.88366L128 1.66699Z" fill="#C99E71"/>
<path d="M104 1.66669L106.575 6.88335L112.333 7.72502L108.167 11.7834L109.15 17.5167L104 14.8084L98.85 17.5167L99.8333 11.7834L95.6667 7.72502L101.425 6.88335L104 1.66669Z" fill="#C99E71"/>
<path d="M80 1.66669L82.575 6.88335L88.3333 7.72502L84.1667 11.7834L85.15 17.5167L80 14.8084L74.85 17.5167L75.8333 11.7834L71.6667 7.72502L77.425 6.88335L80 1.66669Z" fill="#C99E71"/>
<path d="M5.984 16.208C5.22667 16.208 4.51467 16.0587 3.848 15.76C3.18133 15.456 2.59467 15.04 2.088 14.512C1.58667 13.9787 1.192 13.36 0.904 12.656C0.621333 11.952 0.48 11.2 0.48 10.4C0.48 9.6 0.621333 8.848 0.904 8.144C1.192 7.44 1.58667 6.824 2.088 6.296C2.59467 5.76267 3.18133 5.34667 3.848 5.048C4.51467 4.744 5.22667 4.592 5.984 4.592C6.89067 4.592 7.72533 4.80267 8.488 5.224C9.25067 5.64533 9.88267 6.20533 10.384 6.904L9.192 7.544C8.81867 7.05333 8.34667 6.664 7.776 6.376C7.21067 6.08267 6.61333 5.936 5.984 5.936C5.40267 5.936 4.85867 6.05333 4.352 6.288C3.85067 6.52267 3.41067 6.84533 3.032 7.256C2.65333 7.66667 2.35733 8.14133 2.144 8.68C1.93067 9.21867 1.824 9.792 1.824 10.4C1.824 11.0133 1.93067 11.5893 2.144 12.128C2.36267 12.6667 2.66133 13.1413 3.04 13.552C3.424 13.9627 3.86667 14.2853 4.368 14.52C4.87467 14.7493 5.41333 14.864 5.984 14.864C6.63467 14.864 7.23733 14.7173 7.792 14.424C8.352 14.1253 8.81867 13.736 9.192 13.256L10.384 13.904C9.88267 14.6027 9.25067 15.1627 8.488 15.584C7.72533 16 6.89067 16.208 5.984 16.208ZM17.16 16.208C16.4027 16.208 15.6907 16.0587 15.024 15.76C14.3573 15.456 13.7707 15.0373 13.264 14.504C12.7573 13.9707 12.36 13.3547 12.072 12.656C11.784 11.952 11.64 11.2 11.64 10.4C11.64 9.6 11.784 8.85067 12.072 8.152C12.36 7.448 12.7573 6.82933 13.264 6.296C13.7707 5.76267 14.3573 5.34667 15.024 5.048C15.6907 4.744 16.4027 4.592 17.16 4.592C17.9227 4.592 18.6373 4.744 19.304 5.048C19.9707 5.34667 20.5573 5.76267 21.064 6.296C21.5707 6.82933 21.9653 7.448 22.248 8.152C22.536 8.85067 22.68 9.6 22.68 10.4C22.68 11.2 22.536 11.952 22.248 12.656C21.9653 13.3547 21.5707 13.9707 21.064 14.504C20.5573 15.0373 19.9707 15.456 19.304 15.76C18.6373 16.0587 17.9227 16.208 17.16 16.208ZM17.16 14.864C17.7413 14.864 18.2827 14.7467 18.784 14.512C19.2907 14.2773 19.7333 13.9547 20.112 13.544C20.496 13.128 20.7947 12.6533 21.008 12.12C21.2267 11.5813 21.336 11.008 21.336 10.4C21.336 9.792 21.2267 9.21867 21.008 8.68C20.7893 8.136 20.488 7.66133 20.104 7.256C19.7253 6.84533 19.2827 6.52267 18.776 6.288C18.2747 6.05333 17.736 5.936 17.16 5.936C16.5787 5.936 16.0347 6.05333 15.528 6.288C15.0267 6.52267 14.584 6.848 14.2 7.264C13.8213 7.67467 13.5227 8.14933 13.304 8.688C13.0907 9.22133 12.984 9.792 12.984 10.4C12.984 11.0133 13.0933 11.5893 13.312 12.128C13.5307 12.6667 13.8293 13.1413 14.208 13.552C14.592 13.9627 15.0347 14.2853 15.536 14.52C16.0427 14.7493 16.584 14.864 17.16 14.864ZM24.5225 16V4.8H31.0905V6.144H25.8665V9.328H30.3225V10.672H25.8665V16H24.5225ZM32.3038 16V4.8H38.8718V6.144H33.6478V9.328H38.1038V10.672H33.6478V16H32.3038ZM40.085 16V4.8H46.957V6.144H41.429V9.328H45.957V10.672H41.429V14.656H46.957V16H40.085ZM48.8038 16V4.8H55.6758V6.144H50.1478V9.328H54.6758V10.672H50.1478V14.656H55.6758V16H48.8038Z" fill="#C99E71"/>
</svg>
